<?xml version="1.0" encoding="utf-8"?>
<!-- Generator: Adobe Illustrator 19.0.0, SVG Export Plug-In . SVG Version: 6.00 Build 0)  -->
<svg version="1.1" id="Ebene_1" xmlns:svg="http://www.w3.org/2000/svg"
	 xmlns="http://www.w3.org/2000/svg" xmlns:xlink="http://www.w3.org/1999/xlink" x="0px" y="0px"
	 viewBox="465.8 -108.6 836.9 1241.4" style="enable-background:new 465.8 -108.6 836.9 1241.4;" xml:space="preserve">
<path d="M467.4,391.4h29.2v-500h-29.2V391.4z M527.7,391.4h89.4v-500h-89.4V391.4L527.7,391.4z M646.3-108.5v499.9h89.4v-499.9
	H646.3z"/>
<path d="M1187,391.5h29.2v-500H1187V391.5z M1247.3-108.5v500h29.2v-500L1247.3-108.5L1247.3-108.5z M765.9,391.5H795v-500h-29.2
	v500H765.9z M826.1-108.5v500h29.2v-500L826.1-108.5L826.1-108.5z"/>
<path d="M885.4,391.5h89.4v-500h-89.4V391.5z M1004,391.5h31.1v-500H1004V391.5L1004,391.5z M1064.3-108.5v500h89.4v-500
	L1064.3-108.5L1064.3-108.5z"/>
<path d="M1232,446.5l46,103.7h-27.8l-8.5-20.5h-46.4l-7.7,20.5h-27.4l41.8-103.7H1232 M1234.1,511.6l-16.7-40.3l-15.2,40.3H1234.1
	 M1173.8,446.5v19h-37.6v84.7h-25.8v-84.7h-37.6v-19H1173.8 M1040.2,446.5l46,103.7h-27.8l-8.5-20.5h-46.4l-7.7,20.5h-27.4
	l41.8-103.7H1040.2 M1042.3,511.6l-16.7-40.3l-15.2,40.3H1042.3 M865.7,446.5h45.7c17.7,0,31.6,4.8,41.9,14.5
	c10.3,9.6,15.4,22.1,15.4,37.5c0,16.1-5.2,28.7-15.7,37.9c-10.4,9.2-25.2,13.7-44.5,13.7h-42.8L865.7,446.5 M891.5,465.5v65.7h16.8
	c10.9,0,19.3-3,25.1-9s8.7-14,8.7-23.8c0-10.2-2.9-18.2-8.8-24c-5.8-5.9-14.3-8.8-25.2-8.8h-16.6 M841.8,446.5v103.7H816V446.5
	H841.8 M792.9,446.5l-33.8,48.7l45.8,55h-32.4l-41-48.6v48.6h-25.8V446.5h25.8v46.7l33-46.7H792.9 M681.8,446.5v103.7H656V446.5
	H681.8 M554.6,483.9l-32.1,67.6h-11.1l-45.6-105h27.4l24.4,57.3l26.6-57.3H565l26.6,57.3l24.3-57.3h27.4l-45.4,105h-11.1
	L554.6,483.9"/>
<path d="M687,1091.9l8-13.2l-17.3-1.3l6.7-47.3l-124.1,56l-32.4-27.7l4.6-50.6l-34.2-59.2l-0.9-134.5l0.2-221.5h-29.2v218.8
	l15.3,134.1l41.7,64.3l-3,51.5l37.1,31.3h84.2l11.1-35.4l5.2,35L687,1091.9z M540.3,1007l-4.7,47.4l24.7,25.2l127-58.1l5.1-26.9
	l-7.7-19.2l-123.4,97.8l-17.3-23.6l3.7-44l-10.9-50l81.4-139V592.5h-89.4v224.1l-16.4,134.9L540.3,1007z M647.3,592.5L647.2,814
	l-97,145.6l3.1,44.7l-2.7,42.3l11.5,17.5l117.5-94.4l-1.3-16.7l14-4.7l11.3-10.7l-11.3-12l-16.7-6l-4.7-15.3l-12,20.7l-8.5,30.6
	l-48.2,50l-39.6,48.9l-6.8-10.7l3.8-39.8l1.1-42.7L736,813.4l0.7-220.9H647.3z"/>
<path d="M1005,1106.7"/>
<polygon points="885.5,853.6 885.5,962 910.6,947.6 910.6,868.1 "/>
<polygon points="931.1,973.8 885.5,1000.1 885.5,1106.5 931.1,1132.8 1000,1093 1000,1013.5 "/>
<polygon points="1154.7,999.6 1110,973.8 1041.2,1013.5 1041.2,1093 1110,1132.8 1154.7,1107 "/>
<polygon points="1154.7,853.6 1129.7,868.1 1129.7,947.6 1154.7,962 "/>
<g>
	<polygon points="975.9,592.5 886.4,592.5 885.5,816.2 931.1,842.5 975.9,816.7 	"/>
	<polygon points="1065.3,592.5 1065.3,816.7 1110,842.5 1154.7,816.7 1154.7,592.5 	"/>
	<polygon points="1036.1,592.5 1005,592.5 1005,837.3 951.7,868.1 951.7,947.6 1020.6,987.3 1089.4,947.6 1089.4,868.1 
		1036.1,837.3 	"/>
</g>
<rect x="821" y="1009.5" transform="matrix(-0.946 0.3241 -0.3241 -0.946 1939.0693 1735.0009)" width="8.1" height="39"/>
<rect x="768.7" y="868.8" transform="matrix(-0.8796 -0.4757 0.4757 -0.8796 1029.9591 2037.2081)" width="8.1" height="39"/>
<rect x="786.2" y="888.3" width="8.1" height="39"/>
<rect x="777.4" y="959.1" transform="matrix(-0.2427 0.9701 -0.9701 -0.2427 1920.5245 458.054)" width="8.1" height="39"/>
<rect x="768.7" y="1075.9" transform="matrix(-0.923 -0.3848 0.3848 -0.923 1064.4154 2403.7568)" width="8.1" height="39"/>
<path d="M754.1,931.4l16.3,35.4l21.2-9.7l-16.3-35.4L754.1,931.4z M781.7,946.2l-13.3,6.1l-4.5-9.9l13.3-6.1L781.7,946.2z"/>
<path d="M777,991.7l-13.2,36.7l21.9,7.9l13.3-36.7L777,991.7z M786.5,1021.6l-13.8-4.9l3.7-10.2l13.8,4.9L786.5,1021.6z"/>
<path d="M745.3,1038.3l0.4,39l23.3-0.2l-0.4-39L745.3,1038.3z M764.5,1063l-14.7,0.1l-0.1-10.9l14.7-0.1L764.5,1063z"/>
<g>
	<path d="M766.9,592.5v224.9v6.9v0.3l0,0l5,31.5l22.9-3.6v0.2v-0.2h0.1l-0.1-0.4l1.2-259.6L766.9,592.5L766.9,592.5z M774,841.5
		l-1.7-10.7l14.5-2.3l1.7,10.7L774,841.5z"/>
	<polygon points="1195.3,1092.5 1207.3,1092.5 1208,834.3 1217.1,814 1217.1,592.5 1188,592.5 1188,814 1196,834.3 	"/>
	<rect x="1248.3" y="592.5" width="29.2" height="385.8"/>
	<polygon points="827.1,828.2 825.1,850.9 832.4,854.4 856.3,828.2 856.3,592.5 827.1,592.5 	"/>
</g>
<rect x="836.6" y="888.4" transform="matrix(-0.6525 0.7578 -0.7578 -0.6525 2077.1538 863.1858)" width="8.1" height="39"/>
<path d="M853.6,846.9l-25.3,29.6l17.7,15.1l25.3-29.6L853.6,846.9z M851.8,878.2l-11.1-9.5l7.1-8.3l11.1,9.5L851.8,878.2z"/>
<path d="M818.7,934.4l27.5,27.7l16.5-16.4L835.2,918L818.7,934.4z M849.7,938.7L839.3,949l-7.7-7.7L842,931L849.7,938.7z"/>
<path d="M846.8,965.5l-28.3,26.9l16,16.9l28.3-26.9L846.8,965.5z M841.8,996.4l-10.1-10.6l7.9-7.5l10.1,10.6L841.8,996.4z"/>
<rect x="847.9" y="1024.8" transform="matrix(-0.9239 -0.3827 0.3827 -0.9239 1239.3486 2335.2188)" width="8.1" height="39"/>
<rect x="831.1" y="1050.8" transform="matrix(-0.2639 0.9645 -0.9645 -0.2639 2087.9634 547.1869)" width="8.1" height="39"/>
<path d="M827.3,1079.6l-13.2,36.7l21.9,7.9l13.2-36.7L827.3,1079.6z M836.7,1109.5l-13.8-4.9l3.7-10.2l13.8,4.9L836.7,1109.5z"/>
<polygon points="1226.2,1065.4 1202.6,1106.4 1178.9,1065.4 "/>
<rect x="1175.9" y="921.7" width="51.6" height="9"/>
<rect x="1175.9" y="855.9" width="51.6" height="9"/>
<g>
	<g>
		<rect x="1175.9" y="987.5" width="51.6" height="9"/>
		<rect x="1235.5" y="987.5" width="12" height="9"/>
	</g>
	<rect x="1255.5" y="987.5" width="12" height="9"/>
</g>
<rect x="1275.5" y="987.5" width="12" height="9"/>
<rect x="1295.5" y="987.5" width="7.2" height="9"/>
</svg>
